<?xml version="1.0" standalone="no"?>
<!DOCTYPE svg PUBLIC "-//W3C//DTD SVG 20010904//EN"
 "http://www.w3.org/TR/2001/REC-SVG-20010904/DTD/svg10.dtd">
<svg version="1.0" xmlns="http://www.w3.org/2000/svg"
 width="920.000000pt" height="815.000000pt" viewBox="0 0 920.000000 815.000000"
 preserveAspectRatio="xMidYMid meet">

<g transform="translate(0.000000,815.000000) scale(0.100000,-0.100000)"
fill="#000000" stroke="none">
<path d="M4215 8009 c-1521 -125 -2805 -1093 -3334 -2513 -473 -1268 -239
-2697 615 -3766 138 -173 411 -446 584 -584 737 -588 1696 -912 2615 -882 867
27 1652 316 2325 853 174 138 457 421 593 593 469 588 743 1248 833 2005 25
206 25 640 1 848 -89 754 -366 1421 -834 2007 -137 173 -420 456 -593 593
-583 466 -1256 746 -2000 833 -160 18 -644 27 -805 13z m-1396 -2223 c351 -95
428 -119 450 -140 20 -19 53 -99 131 -315 l104 -289 1559 5 c1461 6 1562 5
1592 -11 38 -21 65 -63 65 -103 0 -15 -114 -388 -252 -827 -272 -859 -266
-845 -339 -860 -17 -3 -510 -6 -1096 -6 -1130 0 -1103 -1 -1145 46 -9 11 -192
503 -406 1094 l-390 1075 -378 102 c-208 56 -388 106 -401 112 -33 15 -63 70
-63 115 0 53 61 116 111 116 19 0 225 -51 458 -114z m1484 -2746 c120 -45 223
-176 248 -314 30 -167 -67 -349 -231 -429 -60 -30 -72 -32 -165 -32 -92 0
-106 3 -167 32 -93 44 -151 100 -196 191 -35 73 -37 81 -37 176 0 93 3 107 32
168 52 111 158 199 270 228 60 15 181 5 246 -20z m1662 -8 c84 -40 157 -113
198 -200 29 -61 32 -75 32 -167 0 -92 -3 -106 -32 -167 -41 -88 -113 -160
-201 -201 -61 -29 -75 -32 -167 -32 -94 0 -105 2 -168 33 -211 104 -293 343
-188 551 28 55 113 145 161 171 110 59 253 64 365 12z"/>
<path d="M3747 4793 c-112 -3 -148 -7 -145 -16 3 -6 21 -59 42 -117 l37 -105
1335 0 1335 0 31 100 c17 55 34 110 39 123 l9 22 -1268 -2 c-697 -1 -1334 -4
-1415 -5z"/>
<path d="M3811 4198 c23 -62 46 -128 52 -146 l10 -32 1155 2 1154 3 39 119
c21 66 40 130 44 143 l5 23 -1250 0 -1249 0 40 -112z"/>
<path d="M3970 3763 c1 -5 22 -66 49 -138 l47 -130 974 0 974 0 37 115 c20 63
39 125 43 138 l7 22 -1065 0 c-586 0 -1066 -3 -1066 -7z"/>
<path d="M4080 2801 c-105 -55 -109 -208 -8 -272 26 -15 46 -19 88 -17 68 5
102 27 131 86 66 133 -80 273 -211 203z"/>
<path d="M5717 2798 c-41 -25 -77 -87 -77 -135 0 -16 10 -49 23 -73 73 -138
287 -87 287 68 0 92 -55 153 -144 159 -39 3 -60 -1 -89 -19z"/>
</g>
</svg>
